<svg viewBox="0 0 120 120" xmlns="http://www.w3.org/2000/svg">
<circle cx="60" cy="60" r="60" fill="#052e16"/>
<ellipse cx="60" cy="72" rx="20" ry="18" fill="#d4c5a9"/>
<path d="M38 60 Q36 44 46 40 Q50 38 52 42 L50 50 M68 42 Q70 38 74 40 Q84 44 82 60 L80 50" fill="#854d0e" stroke="none"/>
<circle cx="48" cy="64" r="10" fill="#7c3aed" opacity="0.3"/>
<circle cx="48" cy="64" r="8" fill="#0f172a"/>
<circle cx="48" cy="64" r="6" fill="#a78bfa"/>
<circle cx="72" cy="64" r="10" fill="#7c3aed" opacity="0.3"/>
<circle cx="72" cy="64" r="8" fill="#0f172a"/>
<circle cx="72" cy="64" r="6" fill="#a78bfa"/>
<rect x="56" y="60" width="8" height="4" rx="2" fill="#a1a1aa"/>
<path d="M48 82 Q60 86 72 82" fill="none" stroke="#052e16" stroke-width="1.5" stroke-linecap="round"/>
<path d="M40 86 L35 98 L85 98 L80 86" fill="#365314"/>
</svg>
