<svg viewBox="0 0 120 120" xmlns="http://www.w3.org/2000/svg">
<circle cx="60" cy="60" r="60" fill="#1a0505"/>
<ellipse cx="60" cy="68" rx="22" ry="22" fill="#44403c"/>
<ellipse cx="60" cy="70" rx="18" ry="18" fill="#57534e"/>
<path d="M42 50 Q38 30 32 24 Q36 28 42 26 Q40 34 44 46" fill="#78716c"/>
<path d="M78 50 Q82 30 88 24 Q84 28 78 26 Q80 34 76 46" fill="#78716c"/>
<circle cx="50" cy="64" r="5" fill="#ef4444"/>
<circle cx="70" cy="64" r="5" fill="#ef4444"/>
<circle cx="50" cy="64" r="2.5" fill="#fbbf24"/>
<circle cx="70" cy="64" r="2.5" fill="#fbbf24"/>
<path d="M52 78 L56 82 L60 78 L64 82 L68 78" fill="none" stroke="#fafafa" stroke-width="1.5" stroke-linecap="round" stroke-linejoin="round"/>
<path d="M46 56 Q50 52 54 56" fill="none" stroke="#44403c" stroke-width="2" stroke-linecap="round"/>
<path d="M66 56 Q70 52 74 56" fill="none" stroke="#44403c" stroke-width="2" stroke-linecap="round"/>
<path d="M40 86 L36 98 L84 98 L80 86" fill="#44403c"/>
</svg>
