<svg viewBox="0 0 120 120" xmlns="http://www.w3.org/2000/svg">
<circle cx="60" cy="60" r="60" fill="#111827"/>
<path d="M40 90 Q36 70 42 56 Q46 46 60 42 Q74 46 78 56 Q84 70 80 90" fill="#d1d5db" opacity="0.15"/>
<path d="M42 88 Q40 72 44 58 Q48 50 60 46 Q72 50 76 58 Q80 72 78 88" fill="#e5e7eb" opacity="0.25"/>
<path d="M46 86 Q44 72 48 60 Q52 54 60 50 Q68 54 72 60 Q76 72 74 86" fill="#f3f4f6" opacity="0.35"/>
<circle cx="50" cy="66" r="5" fill="#6366f1"/>
<circle cx="70" cy="66" r="5" fill="#6366f1"/>
<circle cx="50" cy="66" r="2.5" fill="#c7d2fe"/>
<circle cx="70" cy="66" r="2.5" fill="#c7d2fe"/>
<path d="M54 78 Q60 82 66 78" fill="none" stroke="#e5e7eb" stroke-width="1.2" stroke-linecap="round" opacity="0.4"/>
<circle cx="38" cy="50" r="3" fill="#e5e7eb" opacity="0.1"/>
<circle cx="82" cy="52" r="4" fill="#e5e7eb" opacity="0.08"/>
<circle cx="44" cy="40" r="2" fill="#e5e7eb" opacity="0.12"/>
<circle cx="76" cy="42" r="2.5" fill="#e5e7eb" opacity="0.1"/>
</svg>
