<svg viewBox="0 0 120 120" xmlns="http://www.w3.org/2000/svg">
<circle cx="60" cy="60" r="60" fill="#0a1628"/>
<ellipse cx="60" cy="70" rx="20" ry="18" fill="#cbd5e1"/>
<path d="M38 58 Q38 42 60 38 Q82 42 82 58" fill="#1e293b"/>
<rect x="38" y="58" width="44" height="14" rx="4" fill="#0f172a"/>
<rect x="40" y="60" width="18" height="10" rx="3" fill="#22d3ee"/>
<rect x="62" y="60" width="18" height="10" rx="3" fill="#22d3ee"/>
<rect x="42" y="62" width="14" height="6" rx="2" fill="#06b6d4"/>
<rect x="64" y="62" width="14" height="6" rx="2" fill="#06b6d4"/>
<rect x="56" y="62" width="8" height="4" rx="1" fill="#334155"/>
<path d="M54 80 Q60 84 66 80" fill="none" stroke="#0a1628" stroke-width="1.2" stroke-linecap="round"/>
<path d="M34 62 L30 60 L28 64" stroke="#22d3ee" stroke-width="1.5" fill="none" stroke-linecap="round"/>
<path d="M86 62 L90 60 L92 64" stroke="#22d3ee" stroke-width="1.5" fill="none" stroke-linecap="round"/>
<path d="M44 40 L44 36 M52 38 L50 34 M60 36 L60 32 M68 38 L70 34 M76 40 L76 36" stroke="#22d3ee" stroke-width="1.5" stroke-linecap="round" opacity="0.5"/>
<path d="M40 86 L36 98 L84 98 L80 86" fill="#1e293b"/>
</svg>
