<svg viewBox="0 0 120 120" xmlns="http://www.w3.org/2000/svg">
<circle cx="60" cy="60" r="60" fill="#1c1a0e"/>
<ellipse cx="60" cy="72" rx="20" ry="18" fill="#92400e"/>
<path d="M40 66 Q40 56 50 52 L46 48 Q56 50 58 46 L60 42 L62 46 Q64 50 74 48 L70 52 Q80 56 80 66" fill="#a16207"/>
<rect x="44" y="64" width="32" height="10" rx="3" fill="#78350f"/>
<circle cx="52" cy="68" r="4" fill="#fafafa"/>
<circle cx="68" cy="68" r="4" fill="#fafafa"/>
<circle cx="52" cy="68" r="1.5" fill="#1c1a0e"/>
<circle cx="68" cy="68" r="1.5" fill="#1c1a0e"/>
<path d="M50 34 L46 20 L50 26 L52 18" fill="none" stroke="#dc2626" stroke-width="2" stroke-linecap="round" stroke-linejoin="round"/>
<path d="M60 36 L60 22 L64 28 L66 20" fill="none" stroke="#f97316" stroke-width="2" stroke-linecap="round" stroke-linejoin="round"/>
<path d="M70 34 L74 24 L70 28 L72 22" fill="none" stroke="#fbbf24" stroke-width="2" stroke-linecap="round" stroke-linejoin="round"/>
<path d="M44 80 Q60 88 76 80" fill="none" stroke="#78350f" stroke-width="2" stroke-linecap="round"/>
<circle cx="60" cy="84" r="2" fill="#fbbf24"/>
<path d="M40 86 L36 98 L84 98 L80 86" fill="#713f12"/>
</svg>
